<svg width="200" height="50" xmlns="http://www.w3.org/2000/svg">
  <style>
    .text {
      font-family: "Segoe UI", "Roboto", "Helvetica Neue", sans-serif;
      font-size: 38px;
      font-weight: 600;
      fill: #1F2937;
    }
    .leaf {
      fill: #10B981;
    }
  </style>

  <g transform="translate(5, 5)">
    <path class="leaf" d="M35.1,2.4C31.5-1,25.9-0.8,22.6,3c-1.8,2-2.8,4.5-2.8,7.1c0,4.5,2.7,8.5,6.7,10.4c-0.2,0-0.4,0-0.6,0c-9.2,0-16.7,7.5-16.7,16.7c0,0.5,0,1,0.1,1.4h33.4c0.1-0.5,0.1-0.9,0.1-1.4C42.8,19.5,35.1,2.4,35.1,2.4z M26.5,18.5c-2.8-1.2-4.8-4-4.8-7.1c0-2,0.8-3.9,2.1-5.3c2.6-2.8,6.8-3.3,10-1.1C33.8,11.5,29.3,16.5,26.5,18.5z"/>
  </g>

  <text x="60" y="35" class="text">CleanPro</text>
</svg>
